<?xml version="1.0" encoding="utf-8"?>
<!-- Generator: Adobe Illustrator 15.0.0, SVG Export Plug-In . SVG Version: 6.00 Build 0)  -->
<!DOCTYPE svg PUBLIC "-//W3C//DTD SVG 1.1//EN" "http://www.w3.org/Graphics/SVG/1.1/DTD/svg11.dtd">
<svg version="1.1" id="Capa_1" xmlns="http://www.w3.org/2000/svg" xmlns:xlink="http://www.w3.org/1999/xlink" x="0px" y="0px"
	 width="414.137px" height="419.529px" viewBox="2.697 87.875 414.137 419.529"
	 enable-background="new 2.697 87.875 414.137 419.529" xml:space="preserve">
<g>
	<path fill="#B611AB" d="M368.184,387.682h-47.986c-8.03,0-14.541,6.511-14.541,14.541s6.511,14.541,14.541,14.541h9.451v57.438
		c0,8.03,6.511,14.541,14.541,14.541s14.541-6.511,14.541-14.541v-57.438h9.451c8.03,0,14.541-6.511,14.541-14.541
		C382.725,394.193,376.214,387.682,368.184,387.682z"/>
	<path fill="#B611AB" d="M246.785,412.341l7.52-5.729c6.388-4.866,7.62-13.99,2.753-20.38c-4.866-6.387-13.989-7.622-20.379-2.753
		l-38.169,29.081c-6.388,4.866-7.621,13.99-2.753,20.379c2.861,3.756,7.194,5.729,11.577,5.729c3.07,0,6.169-0.971,8.802-2.977
		l7.518-5.728l34.81,45.687c2.862,3.756,7.194,5.729,11.577,5.729c3.071,0,6.169-0.972,8.802-2.976
		c6.388-4.866,7.621-13.99,2.753-20.379L246.785,412.341z"/>
	<path fill="#B611AB" d="M61.452,503.146L259.758,304.84c3.296-3.295,3.295-8.688-0.004-11.981l-42.538-42.482
		c-3.298-3.294-8.694-3.293-11.989,0.005L6.955,448.651c-2.727,2.729-4.259,6.426-4.259,10.282s1.532,7.556,4.259,10.282
		l33.932,33.93c2.84,2.839,6.56,4.259,10.281,4.259C54.891,507.406,58.612,505.986,61.452,503.146z"/>
	<path fill="#B611AB" d="M297.408,301.118c9.038,9.037,21.088,14.014,33.932,14.014c12.843,0,24.895-4.978,33.931-14.014
		l37.53-37.529c18.709-18.71,18.709-49.152,0-67.863l-86.627-86.628c-1.596-1.597-3.542-2.799-5.684-3.513L259.593,88.62
		c-5.221-1.738-10.984-0.381-14.88,3.513l-50.896,50.897c-3.895,3.896-5.255,9.656-3.512,14.88l16.966,50.897
		c0.714,2.142,1.916,4.088,3.512,5.684L297.408,301.118z"/>
</g>
<g display="none">
	<path display="inline" fill="#B24500" d="M362.639,143.703c-102.313,0-148.062-52.918-148.502-53.436
		c-2.658-3.189-8.086-3.189-10.743,0c-0.448,0.531-45.722,53.436-148.503,53.436c-3.86,0-6.994,3.134-6.994,6.995v133.485
		c0,72.971,32.804,142.319,87.75,185.495c22.151,17.409,46.078,30.006,71.125,37.434c0.65,0.195,1.322,0.294,1.993,0.294
		c0.672,0,1.336-0.099,1.993-0.294c25.047-7.436,48.975-20.024,71.125-37.434c54.947-43.183,87.75-112.524,87.75-185.495V150.698
		C369.633,146.837,366.499,143.703,362.639,143.703z M355.645,284.183c0,68.712-30.803,133.947-82.406,174.5
		c-20.165,15.849-41.847,27.418-64.474,34.419c-22.626-6.994-44.309-18.569-64.473-34.419
		c-51.604-40.546-82.407-105.788-82.407-174.5V157.615c85.624-1.902,131.947-38.447,146.88-52.771
		c14.933,14.331,61.256,50.869,146.88,52.771V284.183z"/>
	<path display="inline" fill="#B24500" d="M204.834,143.731c-21.088,14.331-57.094,32.796-108.858,39.398
		c-3.497,0.448-6.113,3.421-6.113,6.938v94.122c0,60.199,26.809,117.21,71.72,152.503c14.142,11.114,29.158,19.829,44.63,25.9
		c0.825,0.321,1.686,0.482,2.553,0.482s1.734-0.161,2.553-0.482c15.458-6.064,30.481-14.779,44.638-25.9
		c44.903-35.293,71.712-92.304,71.712-152.503v-94.122c0-3.518-2.615-6.49-6.112-6.938c-51.765-6.603-87.771-25.067-108.859-39.398
		C210.324,142.116,207.205,142.116,204.834,143.731z M287.437,237.013c2.546-2.902,6.959-3.203,9.869-0.657
		c2.909,2.546,3.203,6.96,0.657,9.869l-97.92,111.908c-1.272,1.455-3.092,2.322-5.028,2.385c-0.077,0-0.154,0-0.231,0
		c-1.854,0-3.63-0.734-4.944-2.049l-55.955-55.954c-2.734-2.735-2.734-7.155,0-9.89c2.735-2.735,7.155-2.735,9.891,0l50.666,50.666
		L287.437,237.013z"/>
</g>
<path display="none" fill="#6E0F3C" d="M320.639,134.82h-3.851c-2.813-26.884-13.492-46.945-26.301-46.945H89.428l0.007,0.001
	c-14.955,0.032-27.068,27.298-27.068,60.929c0,33.583,12.076,60.816,26.999,60.932l201.122,0.003
	c12.809,0,23.486-20.067,26.3-46.952h3.852c3.605,0,6.554,2.943,6.554,6.556v64.431c0,3.613-2.949,6.557-6.554,6.557H190.407
	c-7.728,0-13.982,6.261-13.982,13.983v87.329h-3.274c-6.229,0-11.448,4.703-12.075,10.896l-11.295,109.848
	c-1.188,11.498,2.556,22.956,10.312,31.539c7.742,8.583,18.764,13.48,30.315,13.48c11.558,0,22.589-4.897,30.321-13.48
	c7.756-8.583,11.498-20.041,10.309-31.539L219.744,352.54c-0.63-6.194-5.845-10.896-12.074-10.896h-3.274v-73.345h116.243
	c19.038,0,34.523-15.486,34.523-34.524v-64.431C355.163,150.305,339.677,134.82,320.639,134.82z"/>
<g display="none">
	<g display="inline">
		<path fill="#02CBCF" d="M200.265,361.305c-1.362-0.461-2.865-0.004-3.74,1.139l-24.418,31.9c-1.427,1.862-3.685,2.975-6.038,2.975
			c-1.325,0-2.625-0.344-3.771-1.001L50.411,332.463c-1.038-0.591-2.313-0.587-3.348,0.014c-1.033,0.601-1.669,1.705-1.669,2.9
			v49.806c0,1.198,0.638,2.304,1.674,2.902l150.439,87.038c0.521,0.299,1.1,0.451,1.68,0.451c0.579,0,1.157-0.149,1.676-0.449
			c1.039-0.599,1.678-1.706,1.678-2.903v-107.74C202.542,363.044,201.625,361.765,200.265,361.305z"/>
		<path fill="#02CBCF" d="M373.228,332.476c-1.032-0.599-2.308-0.604-3.347-0.014l-111.896,63.862
			c-1.137,0.649-2.434,0.993-3.758,0.993c-2.355,0-4.613-1.108-6.038-2.972l-24.421-31.904c-0.875-1.141-2.379-1.601-3.739-1.139
			c-1.361,0.459-2.277,1.737-2.277,3.175v107.74c0,1.197,0.64,2.305,1.678,2.903c0.519,0.299,1.099,0.449,1.676,0.449
			c0.58,0,1.159-0.151,1.68-0.451l150.439-87.038c1.036-0.599,1.674-1.704,1.674-2.902v-49.807
			C374.897,334.181,374.261,333.077,373.228,332.476z"/>
		<path fill="#02CBCF" d="M417.612,196.302c-0.179-1.086-0.882-2.016-1.878-2.486l-151.441-71.434
			c-1.214-0.571-2.651-0.368-3.653,0.522l-43.284,38.303l-5.639-2.991c-0.982-0.522-2.161-0.522-3.145,0l-5.636,2.993
			l-43.276-38.305c-1.004-0.889-2.441-1.092-3.653-0.522L4.562,193.816c-0.995,0.469-1.697,1.4-1.878,2.486
			c-0.18,1.087,0.186,2.193,0.979,2.958l45.19,43.685l-7.119,3.781c-0.564,0.299-1.03,0.754-1.345,1.31l-24.545,43.345
			c-0.91,1.608-0.349,3.65,1.256,4.565l144.429,82.428c1.457,0.833,3.304,0.461,4.325-0.872l30.519-39.859
			c0.594-0.777,0.82-1.772,0.619-2.729c-0.201-0.957-0.808-1.778-1.664-2.248L51.953,253.678l152.732-81.044l0.003,99.649
			l-37.495,21.727c-1.046,0.606-1.685,1.73-1.672,2.938c0.013,1.208,0.676,2.317,1.735,2.902l41.27,22.736
			c1.008,0.556,2.229,0.556,3.237,0l41.271-22.736c1.058-0.584,1.723-1.694,1.735-2.904c0.015-1.209-0.624-2.331-1.67-2.937
			l-37.496-21.727l0.001-99.65l152.734,81.044l-143.371,78.99c-0.858,0.469-1.464,1.291-1.664,2.248
			c-0.201,0.956,0.024,1.951,0.619,2.729l30.52,39.86c0.656,0.854,1.652,1.313,2.665,1.313c0.565,0,1.138-0.141,1.658-0.441
			l144.428-82.428c1.605-0.915,2.167-2.957,1.259-4.565l-24.552-43.348c-0.314-0.556-0.78-1.01-1.344-1.308l-7.11-3.781
			l45.188-43.685C417.425,198.494,417.791,197.388,417.612,196.302z"/>
	</g>
</g>
<path display="none" fill="#F25259" d="M211.102,179.232c14.704-0.432,26.383-12.109,26.814-26.815
	c0.433-16.003-12.543-28.979-28.545-28.546c-14.706,0.433-26.383,12.11-26.816,26.816
	C182.122,166.689,195.098,179.665,211.102,179.232z M411.786,345.316h-7.784l-54.93-106.397c7.786-0.865,15.57-3.892,22.49-6.92
	c10.381-4.757,12.542-18.598,4.758-26.815l-0.433-0.432c-4.758-4.758-12.11-6.488-18.598-3.46
	c-6.055,2.595-14.706,5.623-22.923,5.623c-24.222,0-35.034-27.681-124.131-27.681c-89.098,0-99.911,27.681-124.131,27.681
	c-8.65,0-16.868-2.595-22.923-5.623c-6.487-2.595-13.84-1.297-18.598,3.46l-0.432,0.432c-7.786,8.218-5.623,21.626,4.757,26.815
	c6.92,3.461,14.706,6.056,22.49,6.92L16.47,345.316H8.685c-3.46,0-6.055,3.027-5.623,6.488c4.758,27.681,39.792,48.874,82.61,48.874
	c42.818,0,77.852-21.193,82.609-48.874c0.433-3.461-2.163-6.488-5.623-6.488h-7.785L99.946,239.352
	c35.898-3.027,54.929-21.193,82.609-21.193v210.201c-15.137,0-27.68,12.543-27.68,27.682h-30.709
	c-12.11,0-24.653,12.543-24.653,27.68h221.446c0-15.137-12.544-27.68-30.708-27.68h-24.653c0-15.139-12.543-27.682-27.682-27.682
	V218.158c27.682,0,46.713,18.166,82.611,21.193l-54.93,105.964h-7.785c-3.46,0-6.055,3.027-5.623,6.488
	c4.758,27.681,39.791,48.874,82.61,48.874c42.817,0,77.852-21.193,82.608-48.874C417.842,348.344,415.246,345.316,411.786,345.316z
	 M127.194,345.316H44.152l41.521-77.852L127.194,345.316z M293.279,345.316l41.521-77.852l41.521,77.852H293.279z"/>
<g display="none">
	<path display="inline" fill="#57C92F" d="M359.628,257.802c-5.495-43.633-42.321-77.501-87.377-77.501
		c-21.565,0-41.039,7.979-56.354,20.756c-14.452-18.441-36.645-30.535-61.851-30.535c-37.664,0-69.021,26.434-76.847,61.711
		c-40.941,2.874-73.387,36.63-73.387,78.283c0,43.493,35.306,78.799,78.841,78.799c9.234,0,18.022-1.869,26.266-4.826
		c14.354,19.724,37.426,32.669,63.65,32.669c9.639,0,18.762-1.967,27.299-5.133c0-6.166,0-46.451,0-87.448l-96.737,43.814v-13.851
		l24.983-21.161v-20.394h10.894v11.116l23.17-19.612v-19.222h10.908v9.988l26.796-22.709c0-19.445,0-34.566,0-39.532
		c0-16.417,10.155-31.609,10.239-31.511c0.084-0.098,10.239,15.093,10.239,31.511c0,4.966,0,20.073,0,39.532l26.796,22.709v-9.988
		h10.881v19.222l23.184,19.612v-11.116h10.894v20.394l24.997,21.161v13.851l-96.737-43.814c0,35.348,0,70.095,0,83.026
		c13.698,11.591,31.135,18.845,50.482,18.845c31.469,0,58.419-18.608,71.057-45.279c3.864,0.768,7.854,1.2,11.913,1.2
		c34.566,0,62.617-28.01,62.617-62.549C416.361,287.235,391.364,260.815,359.628,257.802z"/>
</g>
<g display="none">
	<path display="inline" fill="#F2B840" d="M412.66,291.341c7.513-8.264,6.787-20.929-1.62-28.281L225.803,100.978
		c-8.406-7.353-21.887-7.198-30.117,0.347L9.82,271.701c-8.23,7.546-8.635,20.194-0.895,28.241l4.66,4.854
		c7.731,8.045,20.227,9.005,27.893,2.136l13.891-12.439v182.116c0,11.174,9.054,20.22,20.219,20.22h72.451
		c11.165,0,20.219-9.046,20.219-20.22V349.2h92.413v127.408c-0.162,11.166,7.827,20.211,18.992,20.211h76.781
		c11.165,0,20.218-9.045,20.218-20.219V297.056c0,0,3.838,3.361,8.569,7.521c4.726,4.152,14.649,0.823,22.163-7.448L412.66,291.341z
		"/>
</g>
<path display="none" fill="#F72D68" d="M381.818,327.14v23.781c0,7.73-6.264,13.995-13.995,13.995h-69.096
	c-7.731,0-13.995-6.265-13.995-13.995V327.14c0-6.779,4.817-12.428,11.217-13.717v-26.77c0-4.777-3.888-8.664-8.664-8.664h-2.844
	c-12.872,23.17-37.15,37.681-64.234,37.681c-27.083,0-51.36-14.511-64.233-37.681H49.707c-7.731,0-13.995-6.265-13.995-13.995
	v-46.214c0-7.73,6.264-13.995,13.995-13.995h107.704c8.86-14.501,22.432-25.35,38.164-30.961v-17.38
	c0-0.959,0.097-1.894,0.281-2.799h-37.568c-7.73,0-13.995-6.265-13.995-13.995V118.61c0-7.731,6.265-13.995,13.995-13.995h37.285
	v-1.745c0-7.73,6.264-13.995,13.995-13.995h21.272c7.73,0,13.995,6.265,13.995,13.995v1.745h37.286
	c7.731,0,13.995,6.264,13.995,13.995v20.041c0,7.73-6.264,13.995-13.995,13.995h-37.568c0.184,0.905,0.282,1.84,0.282,2.799v17.38
	c15.732,5.611,29.304,16.458,38.164,30.961h26.94c32.952,0,59.762,26.808,59.762,59.759v49.741
	C376.543,314.206,381.818,320.05,381.818,327.14z M367.258,461.527c-0.168-0.841-0.411-1.654-0.723-2.435l-20.806-66.283
	c-1.829-5.835-7.238-9.804-13.352-9.804s-11.522,3.969-13.352,9.804l-21.115,67.272c-0.106,0.336-0.198,0.673-0.276,1.013
	c-1.119,3.549-1.684,7.201-1.684,10.881c0,20.088,16.343,36.429,36.429,36.429s36.428-16.343,36.428-36.429
	C368.806,468.447,368.283,464.942,367.258,461.527z"/>
<g id="layer1" transform="translate(0,-1016.3622)" display="none">
	<g id="g3" transform="translate(-7,1019.3622)" display="inline">
		<path id="path11" fill="#7051DC" d="M22.835,145.028c-6.531,0-12.484,6.087-12.484,15.066v80.069
			c0,8.979,5.953,15.067,12.484,15.067h1.292v-13.775c0-7.513,6.262-13.775,13.775-13.775h289.281
			c7.507,0,13.775,6.262,13.775,13.775v13.775h13.775v-20.663v-6.888h41.326v27.551h15.066c6.538,0,12.484-6.087,12.484-15.067
			v-80.069c0-8.979-5.946-15.066-12.484-15.066h-5.166c2.396,4.076,3.875,8.737,3.875,13.775v27.55
			c0,15.141-12.403,27.551-27.551,27.551H51.677c-15.141,0-27.55-12.41-27.55-27.551v-27.55c0-5.038,1.486-9.699,3.874-13.775
			H22.835z M51.677,145.028c-7.749,0-13.775,6.026-13.775,13.775v27.55c0,7.749,6.026,13.775,13.775,13.775h330.608
			c7.748,0,13.775-6.026,13.775-13.775v-27.55c0-7.749-6.027-13.775-13.775-13.775H51.677z M51.677,172.579h330.608v13.775H51.677
			V172.579z M37.902,241.455v41.326h0.43h288.421h0.43v-41.326H37.902z M368.509,241.455v13.775h13.775v-13.775H368.509z
			 M143.799,296.556c-2.435,0-4.305,2.246-4.305,4.735v114.077c0,2.488,1.87,4.735,4.305,4.735c1.83,0,3.632-1.399,4.305-3.014
			c0.222-0.538,0-1.104,0-1.722V301.292C148.104,298.802,146.24,296.556,143.799,296.556z M214.398,296.556
			c-2.441,0-4.305,2.246-4.305,4.735v114.077c0,0.618-0.222,1.184,0,1.722c0.672,1.614,2.475,3.014,4.305,3.014
			c2.435,0,4.306-2.247,4.306-4.735V301.292C218.703,298.802,216.833,296.556,214.398,296.556z M124.427,297.418
			c-2.435,0-4.305,1.816-4.305,4.305V415.8c0,10.614-8.569,19.371-18.941,19.371c-10.372,0-18.51-8.743-18.51-19.371
			c0-8.718,5.428-16.063,13.775-18.511c2.334-0.687,3.687-3.202,3.014-5.596c-0.673-2.396-3.249-3.7-5.596-3.014
			c-12.168,3.564-20.663,14.313-20.663,27.12c0,15.605,12.746,28.411,27.98,28.411c15.235,0,27.981-12.806,27.981-28.411V301.722
			C129.163,299.234,126.863,297.418,124.427,297.418z M233.77,297.418c-2.435,0-4.736,1.816-4.736,4.305V415.8
			c0,15.605,12.754,28.411,27.981,28.411c15.229,0,27.981-12.806,27.981-28.411c0-12.807-8.502-23.556-20.663-27.12
			c-2.341-0.687-4.924,0.618-5.597,3.014c-0.673,2.394,0.673,4.909,3.014,5.596c8.341,2.448,13.775,9.793,13.775,18.511
			c0,10.628-8.139,19.371-18.511,19.371s-18.94-8.757-18.94-19.371V301.722C238.074,299.234,236.204,297.418,233.77,297.418z
			 M101.181,298.709c-1.567,0.673-2.582,2.435-2.582,4.305v48.645c0,10.614-8.812,18.941-19.372,18.941
			c-10.358,0-18.511-8.314-18.511-18.941c0-8.892,5.65-16.869,13.775-18.941c2.375-0.592,4.09-2.771,3.444-5.166
			c-0.592-2.421-3.235-3.618-5.597-3.014c-12.067,3.068-20.663,14.059-20.663,27.121c0,15.604,12.303,28.412,27.551,28.412
			c15.437,0,27.981-12.808,27.981-28.412v-48.645c0-2.488-1.87-4.305-4.305-4.305C102.292,298.709,101.706,298.493,101.181,298.709z
			 M253.572,298.709c-1.561,0.673-2.583,2.435-2.583,4.305v48.645c0,15.604,12.538,28.412,27.981,28.412
			c15.255,0,27.551-12.808,27.551-28.412c0-13.063-8.597-24.053-20.663-27.121c-2.368-0.604-5.005,0.593-5.597,3.014
			c-0.646,2.396,1.076,4.574,3.444,5.166c8.125,2.072,13.774,10.05,13.774,18.941c0,10.627-8.151,18.941-18.51,18.941
			c-10.561,0-19.372-8.327-19.372-18.941v-48.645c0-2.488-1.87-4.305-4.305-4.305C254.674,298.709,254.096,298.493,253.572,298.709z
			"/>
	</g>
</g>
<path display="none" fill="#1F82E4" d="M166.11,87.875v97.929h85.309V87.875h37.1v97.929h41.545v60.092h-27.217L290.86,346.051
	h-26.083v35.977h-30.705l-0.002,23.902c0.002,31.409,25.553,56.964,56.961,56.966l-0.004,44.511
	c-55.946-0.003-101.466-45.524-101.468-101.477l0.002-23.902h-36.808v-35.977H126.67l-11.985-100.155H87.467v-60.092h41.545V87.875
	H166.11z"/>
</svg>
