<?xml version="1.0" encoding="utf-8"?>
<!-- Generator: Adobe Illustrator 15.0.0, SVG Export Plug-In . SVG Version: 6.00 Build 0)  -->
<!DOCTYPE svg PUBLIC "-//W3C//DTD SVG 1.1//EN" "http://www.w3.org/Graphics/SVG/1.1/DTD/svg11.dtd">
<svg version="1.1" id="Layer_1" xmlns="http://www.w3.org/2000/svg" xmlns:xlink="http://www.w3.org/1999/xlink" x="0px" y="0px"
	 width="414px" height="420px" viewBox="0 0 414 420" enable-background="new 0 0 414 420" xml:space="preserve">
<g>
	<g>
		<path fill="#F46D00" d="M104.446,270.627c-19.309,0-34.755,15.721-34.755,34.756c0,19.311,15.723,34.756,34.755,34.756
			c19.035,0,34.757-15.721,34.757-34.756C139.479,286.073,123.756,270.627,104.446,270.627z M104.446,321.658
			c-9.103,0-16.273-7.448-16.273-16.275c0-9.104,7.449-16.275,16.273-16.275c8.828,0,16.275,7.451,16.275,16.275
			C120.996,314.486,113.551,321.658,104.446,321.658z"/>
		<path fill="#F46D00" d="M323.74,270.627c-19.309,0-34.754,15.721-34.754,34.756c0,19.311,15.723,34.756,34.754,34.756
			c19.31,0,34.759-15.721,34.759-34.756C358.773,286.073,343.05,270.627,323.74,270.627z M323.74,321.658
			c-9.102,0-16.271-7.448-16.271-16.275c0-9.104,7.448-16.275,16.271-16.275c9.104,0,16.277,7.451,16.277,16.275
			C340.293,314.486,332.846,321.658,323.74,321.658z"/>
	</g>
	<g>
		<path fill="#F46D00" d="M279.332,146.222c-17.655,0-32.273,14.342-32.273,32.272c0,17.93,14.344,32.275,32.273,32.275
			c17.929,0,32.273-14.346,32.273-32.275C311.605,160.564,297.261,146.222,279.332,146.222z M279.332,207.734
			c-16.275,0-29.516-13.241-29.516-29.515c0-16.274,13.238-29.515,29.516-29.515c16.275,0,29.516,13.241,29.516,29.515
			C308.848,194.494,295.607,207.734,279.332,207.734z"/>
		<path fill="#F46D00" d="M406.493,284.146h-1.928V92.707c0-7.723-6.068-13.792-13.793-13.792H161.545
			c-7.722,0-13.792,6.069-13.792,13.792v48.825H77.966c-6.343,0-11.86,4.414-13.517,10.48L53.141,196.7
			c-1.105,4.138-3.863,7.449-7.449,9.103l-27.307,12.963c-4.69,2.209-8,7.174-8,12.414v52.965h-1.38
			c-4.689,0-8.275,3.582-8.275,8.273v2.205c0,4.691,3.585,8.273,8.275,8.273H49.83c6.069,0,11.585-4.137,13.24-9.929
			c5.241-17.931,21.792-30.893,41.376-30.893c19.586,0,35.859,12.962,41.377,30.893c1.656,5.792,7.172,9.929,13.242,9.929h57.375
			h52.963c6.066,0,11.584-4.137,13.24-9.929c5.238-17.931,21.791-30.893,41.375-30.893c19.586,0,35.86,12.962,41.379,30.893
			c1.653,5.792,7.17,9.929,13.238,9.929h27.858c4.69,0,8.275-3.582,8.275-8.273v-2.205
			C414.77,287.729,410.909,284.146,406.493,284.146z M222.784,150.36v8.275c0,4.688-3.586,8.274-8.276,8.274h-4.137v54.616
			c0,3.035-2.482,5.517-5.518,5.517l0,0c-3.033,0-5.516-2.479-5.516-5.517V166.91h-4.138c-4.689,0-8.275-3.586-8.275-8.274v-8.275
			v-17.656c0-1.379,1.104-2.483,2.484-2.483l0,0c1.379,0,2.48,1.104,2.48,2.483v17.656h10.208v-17.656
			c0-1.379,1.104-2.483,2.483-2.483l0,0c1.379,0,2.481,1.104,2.481,2.483v17.656h10.208v-17.656c0-1.379,1.104-2.483,2.483-2.483
			l0,0c1.38,0,2.481,1.104,2.481,2.483v17.656L222.784,150.36L222.784,150.36z M279.332,226.768
			c-26.758,0-48.547-21.792-48.547-48.547c0-26.756,21.789-48.548,48.547-48.548s48.548,21.792,48.548,48.548
			C327.88,205.251,306.09,226.768,279.332,226.768z M358.499,170.496v50.755c0,3.032-2.482,5.517-5.516,5.517
			c-3.038,0-5.519-2.483-5.519-5.517v-50.755c-7.173-1.38-12.689-5.793-12.689-14.895c0-11.311,8-25.655,18.208-25.655
			c9.928,0,18.202,14.344,18.202,25.655C370.912,164.702,365.67,169.116,358.499,170.496z"/>
	</g>
</g>
</svg>
