<?xml version="1.0" encoding="utf-8"?>
<!-- Generator: Adobe Illustrator 15.0.0, SVG Export Plug-In . SVG Version: 6.00 Build 0)  -->
<!DOCTYPE svg PUBLIC "-//W3C//DTD SVG 1.1//EN" "http://www.w3.org/Graphics/SVG/1.1/DTD/svg11.dtd">
<svg version="1.1" id="Layer_1" xmlns="http://www.w3.org/2000/svg" xmlns:xlink="http://www.w3.org/1999/xlink" x="0px" y="0px"
	 width="414px" height="420px" viewBox="0 0 414 420" enable-background="new 0 0 414 420" xml:space="preserve">
<path fill-rule="evenodd" clip-rule="evenodd" fill="#FFFFFF" d="M171.466,8c6.561-0.423,13.159-0.361,19.724,0
	c90.54,4.982,157.961,67.966,165.677,163.31c3.387,41.846-9.199,83.903-29.19,111.24c4.308,8.364,12.547,14.126,19.723,21.302
	c6.673,6.672,13.215,14.003,20.513,21.302c14.105,14.104,35.373,29.357,41.024,49.702c0,2.894,0,5.786,0,8.679
	c-3.344,15.591-12.892,24.978-28.401,28.401c-2.893,0-5.785,0-8.679,0c-19.898-6.098-36.61-27.144-50.491-41.024
	c-14.527-14.526-27.447-28.604-41.025-41.024c-25.666,20.163-70.081,33.374-112.029,29.979C73.784,352.216,9.955,285.301,5,194.189
	c-0.357-6.565-0.423-13.163,0-19.724C11.377,75.603,72.602,14.376,171.466,8z M112.295,90.049
	c-19.058,13.846-30.563,29.359-38.658,48.915c-42.522,102.713,63.258,194.122,156.21,151.476
	c35.195-16.147,68.816-50.745,68.637-106.506c-0.114-35.617-17.057-65.183-34.713-82.838
	c-19.207-19.207-48.999-33.922-85.205-33.135C150.257,68.574,128.71,78.124,112.295,90.049z"/>
</svg>
