<?xml version="1.0" encoding="utf-8"?>
<!-- Generator: Adobe Illustrator 15.0.0, SVG Export Plug-In . SVG Version: 6.00 Build 0)  -->
<!DOCTYPE svg PUBLIC "-//W3C//DTD SVG 1.1//EN" "http://www.w3.org/Graphics/SVG/1.1/DTD/svg11.dtd">
<svg version="1.1" id="Layer_1" xmlns="http://www.w3.org/2000/svg" xmlns:xlink="http://www.w3.org/1999/xlink" x="0px" y="0px"
	 width="414px" height="420px" viewBox="0 0 414 420" enable-background="new 0 0 414 420" xml:space="preserve">
<g display="none">
	<g display="inline">
		<path fill="#F68B4F" d="M104.446,270.627c-19.309,0-34.755,15.721-34.755,34.756c0,19.31,15.723,34.756,34.755,34.756
			c19.035,0,34.757-15.721,34.757-34.756C139.479,286.073,123.756,270.627,104.446,270.627z M104.446,321.658
			c-9.103,0-16.273-7.448-16.273-16.275c0-9.103,7.449-16.276,16.273-16.276c8.828,0,16.275,7.451,16.275,16.276
			C120.996,314.487,113.551,321.658,104.446,321.658z"/>
		<path fill="#F68B4F" d="M323.74,270.627c-19.308,0-34.754,15.721-34.754,34.756c0,19.31,15.723,34.756,34.754,34.756
			c19.31,0,34.759-15.721,34.759-34.756C358.773,286.073,343.05,270.627,323.74,270.627z M323.74,321.658
			c-9.101,0-16.271-7.448-16.271-16.275c0-9.103,7.448-16.276,16.271-16.276c9.105,0,16.278,7.451,16.278,16.276
			C340.293,314.487,332.846,321.658,323.74,321.658z"/>
	</g>
	<g display="inline">
		<path fill="#F68B4F" d="M279.332,146.222c-17.655,0-32.274,14.342-32.274,32.272s14.345,32.275,32.274,32.275
			c17.929,0,32.273-14.345,32.273-32.275S297.261,146.222,279.332,146.222z M279.332,207.734c-16.276,0-29.515-13.241-29.515-29.515
			c0-16.274,13.238-29.515,29.515-29.515c16.275,0,29.516,13.241,29.516,29.515C308.848,194.494,295.607,207.734,279.332,207.734z"
			/>
		<path fill="#F68B4F" d="M406.493,284.146h-1.928V92.707c0-7.723-6.068-13.792-13.793-13.792H161.545
			c-7.722,0-13.792,6.069-13.792,13.792v48.825H77.966c-6.343,0-11.86,4.414-13.517,10.48L53.141,196.7
			c-1.105,4.138-3.863,7.449-7.449,9.103l-27.307,12.963c-4.69,2.209-8,7.174-8,12.414v52.965h-1.38
			c-4.689,0-8.275,3.582-8.275,8.273v2.205c0,4.692,3.585,8.274,8.275,8.274H49.83c6.069,0,11.585-4.137,13.24-9.929
			c5.241-17.931,21.792-30.893,41.376-30.893c19.586,0,35.859,12.962,41.377,30.893c1.656,5.792,7.172,9.929,13.242,9.929h57.375
			h52.963c6.066,0,11.584-4.137,13.24-9.929c5.238-17.931,21.79-30.893,41.375-30.893c19.586,0,35.86,12.962,41.378,30.893
			c1.654,5.792,7.17,9.929,13.239,9.929h27.858c4.691,0,8.276-3.582,8.276-8.274v-2.205
			C414.77,287.728,410.909,284.146,406.493,284.146z M222.784,150.36v8.275c0,4.688-3.586,8.274-8.276,8.274h-4.137v54.617
			c0,3.035-2.483,5.516-5.518,5.516l0,0c-3.033,0-5.516-2.48-5.516-5.516V166.91h-4.138c-4.689,0-8.275-3.586-8.275-8.274v-8.275
			v-17.656c0-1.379,1.104-2.483,2.484-2.483l0,0c1.379,0,2.48,1.104,2.48,2.483v17.656h10.208v-17.656
			c0-1.379,1.104-2.483,2.483-2.483l0,0c1.379,0,2.481,1.104,2.481,2.483v17.656h10.207v-17.656c0-1.379,1.104-2.483,2.484-2.483
			l0,0c1.38,0,2.481,1.104,2.481,2.483v17.656H222.784z M279.332,226.768c-26.758,0-48.547-21.792-48.547-48.548
			c0-26.756,21.789-48.548,48.547-48.548s48.548,21.792,48.548,48.548C327.88,205.251,306.09,226.768,279.332,226.768z
			 M358.499,170.496v50.755c0,3.032-2.482,5.517-5.516,5.517c-3.038,0-5.518-2.484-5.518-5.517v-50.755
			c-7.173-1.38-12.69-5.793-12.69-14.895c0-11.311,8-25.655,18.208-25.655c9.928,0,18.203,14.344,18.203,25.655
			C370.912,164.702,365.67,169.116,358.499,170.496z"/>
	</g>
</g>
<g>
	<g id="XMLID_2_">
		<path fill="#0C1335" d="M374.489,164.881c55.142,9.324,33.632,95.289,37.838,155.558c-8.586,3.091-22.768,0.597-33.642,1.399
			c12.046,46.206-18.604,87.405-49.048,61.657c-12.805-10.832-9.323-34.737-9.8-60.26c-72.413-3.264-150.887-0.465-225.63-1.397
			c-0.65,25.836,3.416,50.76-9.812,61.657c-30.238,24.936-60.747-14.074-49.048-60.26c-8.067-4.064-25.511,1.235-33.631-2.797
			c4.9-59.098-18.463-146.462,37.837-154.148c6.386-20.155,14.864-38.163,22.421-57.461c11.698-29.858,14.745-58.189,56.063-61.658
			c26.476-2.233,63.327,0,102.293,0c37.609,0,86.301-4.792,105.11,8.403c16.273,11.427,19.787,35.81,26.616,53.255
			C359.821,128.637,367.92,145.681,374.489,164.881z M377.286,239.159c9.4-26.553-12.618-47.726-36.438-42.045
			c-9.866,2.353-14.094,6.071-16.816,9.812C296.224,245.208,362.728,280.292,377.286,239.159z M343.655,163.483
			c-7.697-14.745-10.081-26.779-16.814-44.841c-3.827-10.246-10.018-35.756-21.023-40.646c-17.683-7.838-75.599-1.398-95.288-1.398
			c-27.235,0-73.995-6.126-98.097,0c-22.54,5.724-29.999,73.268-42.044,88.284C161.004,163.949,255.372,166.757,343.655,163.483z
			 M35.348,222.343c-5.985,56.313,75.914,39.691,58.859-8.413c-3.111-8.793-18.29-21.141-36.428-16.815
			C43.241,200.584,36.519,211.371,35.348,222.343z"/>
	</g>
	<path fill="#0C1335" d="M233.344,48.08c0,7.185-5.824,13.01-13.01,13.01h-27.466c-7.185,0-13.01-5.825-13.01-13.01v-6.506
		c0-7.185,5.825-13.01,13.01-13.01h27.466c7.186,0,13.01,5.825,13.01,13.01V48.08z"/>
</g>
</svg>
